<mxfile host="app.diagrams.net" agent="Mozilla/5.0 (Windows NT 10.0; Win64; x64) AppleWebKit/537.36 (KHTML, like Gecko) Chrome/131.0.0.0 Safari/537.36" version="26.0.10">
  <diagram name="Page-1" id="kdO5WqpyDDjDXoMb0VlL">
    <mxGraphModel dx="1434" dy="780" grid="1" gridSize="10" guides="1" tooltips="1" connect="1" arrows="1" fold="1" page="1" pageScale="1" pageWidth="850" pageHeight="1100" math="0" shadow="0">
      <root>
        <mxCell id="0" />
        <mxCell id="1" parent="0" />
        <mxCell id="O8sNarLCsa7gvmpSzw7r-89" value="" style="rounded=1;whiteSpace=wrap;html=1;" vertex="1" parent="1">
          <mxGeometry x="510" y="450" width="140" height="140" as="geometry" />
        </mxCell>
        <mxCell id="O8sNarLCsa7gvmpSzw7r-88" value="" style="rounded=1;whiteSpace=wrap;html=1;" vertex="1" parent="1">
          <mxGeometry x="510" y="297" width="140" height="140" as="geometry" />
        </mxCell>
        <mxCell id="O8sNarLCsa7gvmpSzw7r-87" value="" style="rounded=1;whiteSpace=wrap;html=1;" vertex="1" parent="1">
          <mxGeometry x="510" y="150" width="140" height="140" as="geometry" />
        </mxCell>
        <mxCell id="O8sNarLCsa7gvmpSzw7r-7" value="" style="sketch=0;outlineConnect=0;fontColor=#232F3E;gradientColor=none;fillColor=#232F3D;strokeColor=none;dashed=0;verticalLabelPosition=bottom;verticalAlign=top;align=center;html=1;fontSize=12;fontStyle=0;aspect=fixed;pointerEvents=1;shape=mxgraph.aws4.client;" vertex="1" parent="1">
          <mxGeometry x="76" y="230" width="38" height="37.03" as="geometry" />
        </mxCell>
        <mxCell id="O8sNarLCsa7gvmpSzw7r-8" value="" style="sketch=0;outlineConnect=0;fontColor=#232F3E;gradientColor=none;fillColor=#232F3D;strokeColor=none;dashed=0;verticalLabelPosition=bottom;verticalAlign=top;align=center;html=1;fontSize=12;fontStyle=0;aspect=fixed;pointerEvents=1;shape=mxgraph.aws4.client;" vertex="1" parent="1">
          <mxGeometry x="76" y="290" width="38" height="37.03" as="geometry" />
        </mxCell>
        <mxCell id="O8sNarLCsa7gvmpSzw7r-9" value="" style="sketch=0;outlineConnect=0;fontColor=#232F3E;gradientColor=none;fillColor=#232F3D;strokeColor=none;dashed=0;verticalLabelPosition=bottom;verticalAlign=top;align=center;html=1;fontSize=12;fontStyle=0;aspect=fixed;pointerEvents=1;shape=mxgraph.aws4.client;" vertex="1" parent="1">
          <mxGeometry x="76" y="350" width="38" height="37.03" as="geometry" />
        </mxCell>
        <mxCell id="O8sNarLCsa7gvmpSzw7r-13" value="" style="html=1;endArrow=block;elbow=vertical;startArrow=none;endFill=1;strokeColor=#545B64;rounded=0;" edge="1" parent="1">
          <mxGeometry width="100" relative="1" as="geometry">
            <mxPoint x="126" y="250" as="sourcePoint" />
            <mxPoint x="266" y="280" as="targetPoint" />
          </mxGeometry>
        </mxCell>
        <mxCell id="O8sNarLCsa7gvmpSzw7r-14" value="" style="html=1;endArrow=block;elbow=vertical;startArrow=none;endFill=1;strokeColor=#545B64;rounded=0;" edge="1" parent="1">
          <mxGeometry width="100" relative="1" as="geometry">
            <mxPoint x="126" y="310" as="sourcePoint" />
            <mxPoint x="266" y="300" as="targetPoint" />
          </mxGeometry>
        </mxCell>
        <mxCell id="O8sNarLCsa7gvmpSzw7r-15" value="" style="html=1;endArrow=block;elbow=vertical;startArrow=none;endFill=1;strokeColor=#545B64;rounded=0;" edge="1" parent="1">
          <mxGeometry width="100" relative="1" as="geometry">
            <mxPoint x="126" y="370" as="sourcePoint" />
            <mxPoint x="266" y="320" as="targetPoint" />
          </mxGeometry>
        </mxCell>
        <mxCell id="O8sNarLCsa7gvmpSzw7r-34" value="" style="rounded=0;orthogonalLoop=1;jettySize=auto;html=1;entryX=0;entryY=0.5;entryDx=0;entryDy=0;" edge="1" parent="1" source="O8sNarLCsa7gvmpSzw7r-16" target="O8sNarLCsa7gvmpSzw7r-17">
          <mxGeometry relative="1" as="geometry" />
        </mxCell>
        <mxCell id="O8sNarLCsa7gvmpSzw7r-35" style="rounded=0;orthogonalLoop=1;jettySize=auto;html=1;entryX=0;entryY=0.5;entryDx=0;entryDy=0;" edge="1" parent="1" source="O8sNarLCsa7gvmpSzw7r-16" target="O8sNarLCsa7gvmpSzw7r-18">
          <mxGeometry relative="1" as="geometry" />
        </mxCell>
        <mxCell id="O8sNarLCsa7gvmpSzw7r-36" style="rounded=0;orthogonalLoop=1;jettySize=auto;html=1;entryX=0;entryY=0.5;entryDx=0;entryDy=0;" edge="1" parent="1" source="O8sNarLCsa7gvmpSzw7r-16" target="O8sNarLCsa7gvmpSzw7r-19">
          <mxGeometry relative="1" as="geometry" />
        </mxCell>
        <mxCell id="O8sNarLCsa7gvmpSzw7r-16" value="" style="outlineConnect=0;dashed=0;verticalLabelPosition=bottom;verticalAlign=top;align=center;html=1;shape=mxgraph.aws3.classic_load_balancer;fillColor=#F58536;gradientColor=none;" vertex="1" parent="1">
          <mxGeometry x="386" y="280" width="39" height="40" as="geometry" />
        </mxCell>
        <mxCell id="O8sNarLCsa7gvmpSzw7r-17" value="" style="image;aspect=fixed;perimeter=ellipsePerimeter;html=1;align=center;shadow=0;dashed=0;spacingTop=3;image=img/lib/active_directory/web_server.svg;" vertex="1" parent="1">
          <mxGeometry x="520" y="193.51999999999998" width="40" height="50" as="geometry" />
        </mxCell>
        <mxCell id="O8sNarLCsa7gvmpSzw7r-18" value="" style="image;aspect=fixed;perimeter=ellipsePerimeter;html=1;align=center;shadow=0;dashed=0;spacingTop=3;image=img/lib/active_directory/web_server.svg;" vertex="1" parent="1">
          <mxGeometry x="520" y="335.5" width="40" height="50" as="geometry" />
        </mxCell>
        <mxCell id="O8sNarLCsa7gvmpSzw7r-19" value="" style="image;aspect=fixed;perimeter=ellipsePerimeter;html=1;align=center;shadow=0;dashed=0;spacingTop=3;image=img/lib/active_directory/web_server.svg;" vertex="1" parent="1">
          <mxGeometry x="520" y="489.03" width="40" height="50" as="geometry" />
        </mxCell>
        <mxCell id="O8sNarLCsa7gvmpSzw7r-21" value="" style="outlineConnect=0;dashed=0;verticalLabelPosition=bottom;verticalAlign=top;align=center;html=1;shape=mxgraph.aws3.cache_node;fillColor=#2E73B8;gradientColor=none;" vertex="1" parent="1">
          <mxGeometry x="600" y="385.5" width="40" height="40" as="geometry" />
        </mxCell>
        <mxCell id="O8sNarLCsa7gvmpSzw7r-22" value="" style="outlineConnect=0;dashed=0;verticalLabelPosition=bottom;verticalAlign=top;align=center;html=1;shape=mxgraph.aws3.cache_node;fillColor=#2E73B8;gradientColor=none;" vertex="1" parent="1">
          <mxGeometry x="600" y="240" width="40" height="40" as="geometry" />
        </mxCell>
        <mxCell id="O8sNarLCsa7gvmpSzw7r-23" value="" style="outlineConnect=0;dashed=0;verticalLabelPosition=bottom;verticalAlign=top;align=center;html=1;shape=mxgraph.aws3.cache_node;fillColor=#2E73B8;gradientColor=none;" vertex="1" parent="1">
          <mxGeometry x="600" y="539.03" width="40" height="40" as="geometry" />
        </mxCell>
        <mxCell id="O8sNarLCsa7gvmpSzw7r-28" value="" style="edgeStyle=orthogonalEdgeStyle;html=1;endArrow=block;elbow=vertical;startArrow=block;startFill=1;endFill=1;strokeColor=#545B64;rounded=0;exitX=0.5;exitY=1;exitDx=0;exitDy=0;entryX=0;entryY=0.5;entryDx=0;entryDy=0;entryPerimeter=0;" edge="1" parent="1" source="O8sNarLCsa7gvmpSzw7r-17" target="O8sNarLCsa7gvmpSzw7r-22">
          <mxGeometry width="100" relative="1" as="geometry">
            <mxPoint x="490" y="280" as="sourcePoint" />
            <mxPoint x="590" y="280" as="targetPoint" />
          </mxGeometry>
        </mxCell>
        <mxCell id="O8sNarLCsa7gvmpSzw7r-30" value="" style="edgeStyle=orthogonalEdgeStyle;html=1;endArrow=block;elbow=vertical;startArrow=block;startFill=1;endFill=1;strokeColor=#545B64;rounded=0;exitX=0.5;exitY=1;exitDx=0;exitDy=0;entryX=0;entryY=0.5;entryDx=0;entryDy=0;entryPerimeter=0;" edge="1" parent="1" source="O8sNarLCsa7gvmpSzw7r-18" target="O8sNarLCsa7gvmpSzw7r-21">
          <mxGeometry width="100" relative="1" as="geometry">
            <mxPoint x="541" y="385.49999999999994" as="sourcePoint" />
            <mxPoint x="601" y="405.5" as="targetPoint" />
          </mxGeometry>
        </mxCell>
        <mxCell id="O8sNarLCsa7gvmpSzw7r-31" value="" style="edgeStyle=orthogonalEdgeStyle;html=1;endArrow=block;elbow=vertical;startArrow=block;startFill=1;endFill=1;strokeColor=#545B64;rounded=0;exitX=0.5;exitY=1;exitDx=0;exitDy=0;" edge="1" parent="1" source="O8sNarLCsa7gvmpSzw7r-19" target="O8sNarLCsa7gvmpSzw7r-23">
          <mxGeometry width="100" relative="1" as="geometry">
            <mxPoint x="540" y="529.03" as="sourcePoint" />
            <mxPoint x="640" y="529.03" as="targetPoint" />
          </mxGeometry>
        </mxCell>
        <mxCell id="O8sNarLCsa7gvmpSzw7r-33" value="" style="edgeStyle=orthogonalEdgeStyle;rounded=0;orthogonalLoop=1;jettySize=auto;html=1;" edge="1" parent="1" source="O8sNarLCsa7gvmpSzw7r-32" target="O8sNarLCsa7gvmpSzw7r-16">
          <mxGeometry relative="1" as="geometry" />
        </mxCell>
        <mxCell id="O8sNarLCsa7gvmpSzw7r-32" value="" style="points=[];aspect=fixed;html=1;align=center;shadow=0;dashed=0;fillColor=#FF6A00;strokeColor=none;shape=mxgraph.alibaba_cloud.uis_ultimate_internet_service;" vertex="1" parent="1">
          <mxGeometry x="276" y="273" width="54.900000000000006" height="54" as="geometry" />
        </mxCell>
        <mxCell id="O8sNarLCsa7gvmpSzw7r-37" value="" style="sketch=0;points=[[0,0,0],[0.25,0,0],[0.5,0,0],[0.75,0,0],[1,0,0],[0,1,0],[0.25,1,0],[0.5,1,0],[0.75,1,0],[1,1,0],[0,0.25,0],[0,0.5,0],[0,0.75,0],[1,0.25,0],[1,0.5,0],[1,0.75,0]];outlineConnect=0;fontColor=#232F3E;fillColor=#C925D1;strokeColor=#ffffff;dashed=0;verticalLabelPosition=bottom;verticalAlign=top;align=center;html=1;fontSize=12;fontStyle=0;aspect=fixed;shape=mxgraph.aws4.resourceIcon;resIcon=mxgraph.aws4.database;" vertex="1" parent="1">
          <mxGeometry x="760" y="273" width="40" height="40" as="geometry" />
        </mxCell>
        <mxCell id="O8sNarLCsa7gvmpSzw7r-68" value="Internet" style="text;html=1;align=center;verticalAlign=middle;whiteSpace=wrap;rounded=0;" vertex="1" parent="1">
          <mxGeometry x="273.45" y="330" width="60" height="30" as="geometry" />
        </mxCell>
        <mxCell id="O8sNarLCsa7gvmpSzw7r-69" value="ISMIS&amp;nbsp;" style="text;html=1;align=center;verticalAlign=middle;whiteSpace=wrap;rounded=0;" vertex="1" parent="1">
          <mxGeometry x="380" y="80" width="60" height="30" as="geometry" />
        </mxCell>
        <mxCell id="O8sNarLCsa7gvmpSzw7r-70" value="Load Balancer" style="text;html=1;align=center;verticalAlign=middle;whiteSpace=wrap;rounded=0;" vertex="1" parent="1">
          <mxGeometry x="375.5" y="325" width="60" height="30" as="geometry" />
        </mxCell>
        <mxCell id="O8sNarLCsa7gvmpSzw7r-71" value="Web server" style="text;html=1;align=center;verticalAlign=middle;whiteSpace=wrap;rounded=0;" vertex="1" parent="1">
          <mxGeometry x="510" y="160" width="60" height="30" as="geometry" />
        </mxCell>
        <mxCell id="O8sNarLCsa7gvmpSzw7r-72" value="Web server" style="text;html=1;align=center;verticalAlign=middle;whiteSpace=wrap;rounded=0;" vertex="1" parent="1">
          <mxGeometry x="510" y="308.5" width="60" height="30" as="geometry" />
        </mxCell>
        <mxCell id="O8sNarLCsa7gvmpSzw7r-73" value="Web server" style="text;html=1;align=center;verticalAlign=middle;whiteSpace=wrap;rounded=0;" vertex="1" parent="1">
          <mxGeometry x="510" y="459.03" width="60" height="30" as="geometry" />
        </mxCell>
        <mxCell id="O8sNarLCsa7gvmpSzw7r-74" value="Database" style="text;html=1;align=center;verticalAlign=middle;whiteSpace=wrap;rounded=0;" vertex="1" parent="1">
          <mxGeometry x="810" y="283" width="60" height="30" as="geometry" />
        </mxCell>
        <mxCell id="O8sNarLCsa7gvmpSzw7r-75" value="" style="sketch=0;points=[[0,0,0],[0.25,0,0],[0.5,0,0],[0.75,0,0],[1,0,0],[0,1,0],[0.25,1,0],[0.5,1,0],[0.75,1,0],[1,1,0],[0,0.25,0],[0,0.5,0],[0,0.75,0],[1,0.25,0],[1,0.5,0],[1,0.75,0]];outlineConnect=0;fontColor=#232F3E;fillColor=#C925D1;strokeColor=#ffffff;dashed=0;verticalLabelPosition=bottom;verticalAlign=top;align=center;html=1;fontSize=12;fontStyle=0;aspect=fixed;shape=mxgraph.aws4.resourceIcon;resIcon=mxgraph.aws4.rds;" vertex="1" parent="1">
          <mxGeometry x="760" y="433" width="40" height="40" as="geometry" />
        </mxCell>
        <mxCell id="O8sNarLCsa7gvmpSzw7r-77" value="" style="points=[];aspect=fixed;html=1;align=center;shadow=0;dashed=0;fillColor=#FF6A00;strokeColor=none;shape=mxgraph.alibaba_cloud.swas_simple_application_server;" vertex="1" parent="1">
          <mxGeometry x="580" y="195" width="40" height="40" as="geometry" />
        </mxCell>
        <mxCell id="O8sNarLCsa7gvmpSzw7r-78" value="Application Server" style="text;html=1;align=center;verticalAlign=middle;whiteSpace=wrap;rounded=0;" vertex="1" parent="1">
          <mxGeometry x="570" y="160" width="60" height="30" as="geometry" />
        </mxCell>
        <mxCell id="O8sNarLCsa7gvmpSzw7r-82" value="" style="points=[];aspect=fixed;html=1;align=center;shadow=0;dashed=0;fillColor=#FF6A00;strokeColor=none;shape=mxgraph.alibaba_cloud.swas_simple_application_server;" vertex="1" parent="1">
          <mxGeometry x="580" y="342.53" width="40" height="40" as="geometry" />
        </mxCell>
        <mxCell id="O8sNarLCsa7gvmpSzw7r-83" value="Application Server" style="text;html=1;align=center;verticalAlign=middle;whiteSpace=wrap;rounded=0;" vertex="1" parent="1">
          <mxGeometry x="570" y="313.5" width="60" height="30" as="geometry" />
        </mxCell>
        <mxCell id="O8sNarLCsa7gvmpSzw7r-84" value="" style="points=[];aspect=fixed;html=1;align=center;shadow=0;dashed=0;fillColor=#FF6A00;strokeColor=none;shape=mxgraph.alibaba_cloud.swas_simple_application_server;" vertex="1" parent="1">
          <mxGeometry x="570" y="499.03" width="40" height="40" as="geometry" />
        </mxCell>
        <mxCell id="O8sNarLCsa7gvmpSzw7r-85" value="Application Server" style="text;html=1;align=center;verticalAlign=middle;whiteSpace=wrap;rounded=0;" vertex="1" parent="1">
          <mxGeometry x="560" y="459.03" width="60" height="30" as="geometry" />
        </mxCell>
        <mxCell id="O8sNarLCsa7gvmpSzw7r-86" value="Cloud Database" style="text;html=1;align=center;verticalAlign=middle;whiteSpace=wrap;rounded=0;" vertex="1" parent="1">
          <mxGeometry x="810" y="438" width="60" height="30" as="geometry" />
        </mxCell>
        <mxCell id="O8sNarLCsa7gvmpSzw7r-90" value="" style="endArrow=classic;html=1;rounded=0;exitX=1;exitY=0.5;exitDx=0;exitDy=0;entryX=0;entryY=0.25;entryDx=0;entryDy=0;entryPerimeter=0;" edge="1" parent="1" source="O8sNarLCsa7gvmpSzw7r-87" target="O8sNarLCsa7gvmpSzw7r-37">
          <mxGeometry width="50" height="50" relative="1" as="geometry">
            <mxPoint x="580" y="390" as="sourcePoint" />
            <mxPoint x="700" y="380" as="targetPoint" />
          </mxGeometry>
        </mxCell>
        <mxCell id="O8sNarLCsa7gvmpSzw7r-91" value="" style="endArrow=classic;html=1;rounded=0;exitX=1;exitY=0.5;exitDx=0;exitDy=0;entryX=0;entryY=0.5;entryDx=0;entryDy=0;entryPerimeter=0;" edge="1" parent="1" source="O8sNarLCsa7gvmpSzw7r-88" target="O8sNarLCsa7gvmpSzw7r-37">
          <mxGeometry width="50" height="50" relative="1" as="geometry">
            <mxPoint x="580" y="390" as="sourcePoint" />
            <mxPoint x="630" y="340" as="targetPoint" />
          </mxGeometry>
        </mxCell>
        <mxCell id="O8sNarLCsa7gvmpSzw7r-92" value="" style="endArrow=classic;html=1;rounded=0;exitX=1;exitY=0.5;exitDx=0;exitDy=0;entryX=0;entryY=0.75;entryDx=0;entryDy=0;entryPerimeter=0;" edge="1" parent="1" source="O8sNarLCsa7gvmpSzw7r-89" target="O8sNarLCsa7gvmpSzw7r-37">
          <mxGeometry width="50" height="50" relative="1" as="geometry">
            <mxPoint x="600" y="420" as="sourcePoint" />
            <mxPoint x="650" y="370" as="targetPoint" />
          </mxGeometry>
        </mxCell>
        <mxCell id="O8sNarLCsa7gvmpSzw7r-93" value="" style="verticalLabelPosition=bottom;html=1;verticalAlign=top;align=center;strokeColor=none;fillColor=#00BEF2;shape=mxgraph.azure.sql_datasync;" vertex="1" parent="1">
          <mxGeometry x="761.25" y="355" width="37.5" height="40" as="geometry" />
        </mxCell>
        <mxCell id="O8sNarLCsa7gvmpSzw7r-94" value="" style="endArrow=classic;html=1;rounded=0;exitX=1;exitY=0.5;exitDx=0;exitDy=0;entryX=0;entryY=0.25;entryDx=0;entryDy=0;entryPerimeter=0;" edge="1" parent="1" source="O8sNarLCsa7gvmpSzw7r-87" target="O8sNarLCsa7gvmpSzw7r-75">
          <mxGeometry width="50" height="50" relative="1" as="geometry">
            <mxPoint x="660" y="230" as="sourcePoint" />
            <mxPoint x="770" y="380" as="targetPoint" />
          </mxGeometry>
        </mxCell>
        <mxCell id="O8sNarLCsa7gvmpSzw7r-95" value="" style="endArrow=classic;html=1;rounded=0;exitX=1;exitY=0.5;exitDx=0;exitDy=0;entryX=0;entryY=0.5;entryDx=0;entryDy=0;entryPerimeter=0;" edge="1" parent="1" source="O8sNarLCsa7gvmpSzw7r-88" target="O8sNarLCsa7gvmpSzw7r-75">
          <mxGeometry width="50" height="50" relative="1" as="geometry">
            <mxPoint x="660" y="377" as="sourcePoint" />
            <mxPoint x="770" y="390" as="targetPoint" />
          </mxGeometry>
        </mxCell>
        <mxCell id="O8sNarLCsa7gvmpSzw7r-96" value="" style="endArrow=classic;html=1;rounded=0;entryX=0;entryY=0.75;entryDx=0;entryDy=0;entryPerimeter=0;" edge="1" parent="1" target="O8sNarLCsa7gvmpSzw7r-75">
          <mxGeometry width="50" height="50" relative="1" as="geometry">
            <mxPoint x="650" y="520" as="sourcePoint" />
            <mxPoint x="770" y="400" as="targetPoint" />
          </mxGeometry>
        </mxCell>
        <mxCell id="O8sNarLCsa7gvmpSzw7r-97" value="Data Sync" style="text;html=1;align=center;verticalAlign=middle;whiteSpace=wrap;rounded=0;" vertex="1" parent="1">
          <mxGeometry x="820" y="360" width="60" height="30" as="geometry" />
        </mxCell>
        <mxCell id="O8sNarLCsa7gvmpSzw7r-98" value="" style="endArrow=classic;startArrow=classic;html=1;rounded=0;exitX=0.5;exitY=0;exitDx=0;exitDy=0;exitPerimeter=0;entryX=0.5;entryY=1;entryDx=0;entryDy=0;entryPerimeter=0;" edge="1" parent="1" source="O8sNarLCsa7gvmpSzw7r-93" target="O8sNarLCsa7gvmpSzw7r-37">
          <mxGeometry width="50" height="50" relative="1" as="geometry">
            <mxPoint x="620" y="390" as="sourcePoint" />
            <mxPoint x="670" y="340" as="targetPoint" />
          </mxGeometry>
        </mxCell>
        <mxCell id="O8sNarLCsa7gvmpSzw7r-99" value="" style="endArrow=classic;startArrow=classic;html=1;rounded=0;exitX=0.5;exitY=0;exitDx=0;exitDy=0;exitPerimeter=0;entryX=0.5;entryY=1;entryDx=0;entryDy=0;entryPerimeter=0;" edge="1" parent="1" source="O8sNarLCsa7gvmpSzw7r-75">
          <mxGeometry width="50" height="50" relative="1" as="geometry">
            <mxPoint x="779.76" y="437" as="sourcePoint" />
            <mxPoint x="779.76" y="395" as="targetPoint" />
          </mxGeometry>
        </mxCell>
      </root>
    </mxGraphModel>
  </diagram>
</mxfile>
